HIERARCHY
ROOT root
{
	OFFSET	0	13.1	24.9
	CHANNELS 6  Xposition Yposition Zposition Xrotation Yrotation Zrotation
	JOINT spine_1
	{
		OFFSET	0	9.99999	0
		CHANNELS 3  Xrotation Yrotation Zrotation
		JOINT spine_2
		{
			OFFSET	0	112	-10
			CHANNELS 3  Xrotation Yrotation Zrotation
			JOINT spine_3
			{
				OFFSET	0	206.5	19.3
				CHANNELS 3  Xrotation Yrotation Zrotation
				JOINT spine_4
				{
					OFFSET	0	110.4	14.6
					CHANNELS 3  Xrotation Yrotation Zrotation
					JOINT neck_1
					{
						OFFSET	0	71.8	-50.3
						CHANNELS 3  Xrotation Yrotation Zrotation
						JOINT neck_2
						{
							OFFSET	0	86.2	-25.8
							CHANNELS 3  Xrotation Yrotation Zrotation
							JOINT head_ee
							{
								OFFSET	0	179.8	-8.7
								CHANNELS 3  Xrotation Yrotation Zrotation
								End Site
								{
									OFFSET	1	0	0
								}
							}
						}
					}
					JOINT left_clavicle
					{
						OFFSET	-43.2	22.4	-70.8
						CHANNELS 3  Xrotation Yrotation Zrotation
						JOINT left_shoulder
						{
							OFFSET	-93.9	-5.79999	48.7
							CHANNELS 3  Xrotation Yrotation Zrotation
							JOINT left_elbow
							{
								OFFSET	-291.4	-30.8	15.2
								CHANNELS 3  Xrotation Yrotation Zrotation
								JOINT left_lowarm_twist
								{
									OFFSET	-110.7	-3.89999	13.6
									CHANNELS 3  Xrotation Yrotation Zrotation
									JOINT left_hand
									{
										OFFSET	-110.7	-3.89999	13.6
										CHANNELS 3  Xrotation Yrotation Zrotation
										JOINT left_ee
										{
											OFFSET	-80.8	-5.10001	12.1
											CHANNELS 3  Xrotation Yrotation Zrotation
											End Site
											{
												OFFSET	1	0	0
											}
										}
									}
								}
							}
						}
					}
					JOINT right_clavicle
					{
						OFFSET	43.2	22.4	-70.8
						CHANNELS 3  Xrotation Yrotation Zrotation
						JOINT right_shoulder
						{
							OFFSET	93.9	-5.79999	48.7
							CHANNELS 3  Xrotation Yrotation Zrotation
							JOINT right_elbow
							{
								OFFSET	291.4	-30.8	15.2
								CHANNELS 3  Xrotation Yrotation Zrotation
								JOINT right_lowarm_twist
								{
									OFFSET	110.7	-3.89999	13.6
									CHANNELS 3  Xrotation Yrotation Zrotation
									JOINT right_hand
									{
										OFFSET	110.7	-3.89999	13.6
										CHANNELS 3  Xrotation Yrotation Zrotation
										JOINT right_ee
										{
											OFFSET	80.8	-5.10001	12.1
											CHANNELS 3  Xrotation Yrotation Zrotation
											End Site
											{
												OFFSET	1	0	0
											}
										}
									}
								}
							}
						}
					}
				}
			}
		}
	}
	JOINT left_hip
	{
		OFFSET	-82.8	-127.5	0.300001
		CHANNELS 3  Xrotation Yrotation Zrotation
		JOINT left_knee
		{
			OFFSET	-28.2	-396.7	2.2
			CHANNELS 3  Xrotation Yrotation Zrotation
			JOINT left_ankle
			{
				OFFSET	-11.7	-411.3	35.4
				CHANNELS 3  Xrotation Yrotation Zrotation
				JOINT left_toes
				{
					OFFSET	0	-60	-88.6
					CHANNELS 3  Xrotation Yrotation Zrotation
					JOINT left_foot_ee
					{
						OFFSET	-22.5	-16.5	-42.2
						CHANNELS 3  Xrotation Yrotation Zrotation
						End Site
						{
							OFFSET	1	0	0
						}
					}
				}
			}
		}
	}
	JOINT right_hip
	{
		OFFSET	82.8	-127.5	0.300001
		CHANNELS 3  Xrotation Yrotation Zrotation
		JOINT right_knee
		{
			OFFSET	28.2	-396.7	2.2
			CHANNELS 3  Xrotation Yrotation Zrotation
			JOINT right_ankle
			{
				OFFSET	11.7	-411.3	35.4
				CHANNELS 3  Xrotation Yrotation Zrotation
				JOINT right_toes
				{
					OFFSET	0	-60	-88.6
					CHANNELS 3  Xrotation Yrotation Zrotation
					JOINT right_foot_ee
					{
						OFFSET	22.5	-16.5	-42.2
						CHANNELS 3  Xrotation Yrotation Zrotation
						End Site
						{
							OFFSET	1	0	0
						}
					}
				}
			}
		}
	}
}
MOTION
Frames: 10
Frame Time: 0.02
2518.26 761.276 -703.052 -160.178 -85.6141 -161.505 2.20089 0.067725 0.427361 2.20099 0.0403939 0.430804 2.20129 -0.0345119 0.431315 2.20103 0.0340387 0.431352 -16.2291 10.3059 5.46439 -16.4213 16.6505 8.79168 -0.0 0.0 -0.0 7.2216 2.7981 14.0044 -21.9059 -36.5574 43.7408 1.08966 -28.3588 0.275319 5.26297 0.155476 -0.654048 0.00871136 20.6212 8.35953 -0.0 0.0 -0.0 5.35782 11.1386 -9.8665 -24.4618 22.5888 -62.3995 1.2951 32.6808 -0.37972 -28.3245 1.80346 -3.10247 -0.782611 1.25142 5.77988 0.0 0.0 0.0 7.31871 6.36746 6.24364 -5.37336 0.183645 0.803903 5.98334 20.7583 -0.882952 -8.38999 0.0 0.0 -0.0 0.0 -0.0 27.4225 11.1844 2.60353 -55.511 1.73525 -8.01264 -9.10566 -16.6003 -1.3689 -12.9782 0.0 0.0 0.0 0.0 0.0 
2532.12 756.438 -706.261 -157.782 -86.0443 -159.137 2.41285 0.187253 0.360341 2.41291 0.163945 0.371526 2.41398 0.0988769 0.393869 2.4138 0.15984 0.37331 -16.1554 9.95063 4.79585 -16.3556 16.3404 8.03023 -0.0 0.0 -0.0 7.42301 1.92415 14.411 -21.0099 -36.6255 42.782 1.23586 -31.474 0.348258 4.22429 0.129565 -0.523897 -0.665432 19.126 3.73524 -0.0 0.0 -0.0 4.94611 10.2351 -9.05946 -25.3988 22.1641 -63.3931 1.09204 28.4109 -0.276446 -27.8117 1.75775 -3.05522 -0.752778 0.773491 5.37065 0.0 0.0 0.0 5.81715 4.80854 6.66419 -3.78013 0.137077 0.563834 7.91199 21.4497 -1.1643 -8.86263 0.0 0.0 -0.0 0.0 -0.0 29.286 10.0192 1.67392 -50.1702 1.23703 -7.35809 -13.5905 -18.8449 -2.06675 -14.944 0.0 0.0 0.0 0.0 0.0 
2554.37 749.775 -708.113 -149.711 -86.6026 -150.389 2.62128 0.116244 0.113203 2.62128 0.108805 0.12037 2.62151 0.08742 0.136694 2.6215 0.107911 0.121173 -17.225 9.09853 2.88387 -17.4853 15.8835 6.10408 -0.0 0.0 -0.0 7.52334 1.67418 14.6121 -20.3013 -35.7024 42.0877 1.49461 -36.5134 0.493067 3.05118 0.0974667 -0.377485 -1.22112 17.3387 -0.386932 -0.0 0.0 -0.0 4.85493 9.51424 -8.91424 -26.0767 22.0396 -64.3235 0.821592 22.1458 -0.160789 -27.4246 1.72352 -3.01929 -0.728058 -0.267984 4.75076 0.0 0.0 0.0 4.36249 3.62036 7.00778 -2.47286 0.0938893 0.367859 12.2278 21.8791 -1.77805 -8.94674 0.0 0.0 -0.0 0.0 -0.0 30.8073 12.1212 0.478171 -45.0229 0.816838 -6.68665 -15.9886 -20.8949 -2.45362 -15.841 0.0 0.0 0.0 0.0 0.0 
2568.36 753.264 -709.385 -138.379 -86.4238 -139.375 2.87751 0.0234667 -0.00133838 2.87751 0.0235043 0.00015758 2.87751 0.023173 0.00393577 2.87751 0.0235038 0.000226633 -18.0973 8.6678 2.20494 -18.3781 15.4859 5.43716 -0.0 0.0 -0.0 7.73623 1.53306 15.0341 -19.568 -35.1573 41.5601 1.74953 -40.9107 0.652614 2.52558 0.0821138 -0.312103 -1.62648 16.0214 -3.46729 -0.0 0.0 -0.0 4.62079 8.49154 -8.49186 -27.1213 22.6411 -64.6537 0.643019 17.6685 -0.0999393 -27.0838 1.69359 -2.98747 -0.650436 -1.00274 3.91228 0.0 0.0 0.0 3.35334 2.7809 7.12809 -1.54626 0.060572 0.229558 16.615 22.0518 -2.37971 -9.16469 0.0 0.0 -0.0 0.0 -0.0 31.6744 14.7038 0.350739 -39.1071 0.410942 -5.87289 -15.1937 -20.9673 -2.33084 -16.4931 0.0 0.0 0.0 0.0 0.0 
2584.14 759.624 -713.201 -136.547 -86.65 -137.202 3.03211 -0.07261 -0.079501 3.03211 -0.067404 -0.0839603 3.03221 -0.053276 -0.0935644 3.0322 -0.0673841 -0.0839762 -18.5532 8.56068 1.62765 -18.8594 15.613 4.92842 -0.0 0.0 -0.0 7.92907 1.44571 15.4172 -19.1465 -34.199 40.8079 1.89875 -43.2418 0.752628 1.80011 0.0599376 -0.222091 -1.9928 15.1202 -6.1651 -0.0 0.0 -0.0 4.34339 7.78384 -7.96432 -27.9708 23.002 -64.9152 0.520071 14.447 -0.0659175 -26.3374 1.6287 -2.91716 -0.504726 -2.16331 2.44065 0.0 0.0 0.0 2.51857 1.89545 7.18165 -1.96828 0.0760239 0.292482 21.4848 21.984 -3.01535 -9.21843 0.0 0.0 -0.0 0.0 -0.0 32.3159 18.1363 0.790431 -34.7904 0.169021 -5.2554 -13.5734 -20.9766 -2.07937 -16.8711 0.0 0.0 0.0 0.0 0.0 
2598.26 752.748 -717.047 -139.295 -85.5823 -139.838 3.24023 -0.145568 -0.120453 3.24022 -0.137609 -0.129472 3.24054 -0.115942 -0.149186 3.24053 -0.138048 -0.129003 -18.7948 8.53038 1.32972 -19.1157 15.7229 4.67711 -0.0 0.0 -0.0 8.14913 1.14779 15.8612 -17.9707 -33.8467 40.061 2.01483 -44.94 0.833407 1.29102 0.0436956 -0.159095 -2.27229 14.4901 -8.22569 -0.0 0.0 -0.0 4.14819 7.27006 -7.59667 -29.0052 23.2235 -65.123 0.436391 12.1984 -0.0466309 -25.8767 1.58911 -2.87334 -0.395282 -3.04436 1.33755 0.0 0.0 0.0 1.96139 1.27588 7.34116 -2.23687 0.0856162 0.332586 24.9302 21.9076 -3.44324 -9.25619 0.0 0.0 -0.0 0.0 -0.0 32.6413 20.9273 0.891368 -31.2397 0.00540962 -4.73525 -12.1809 -20.8096 -1.86222 -17.0162 0.0 0.0 0.0 0.0 0.0 
2613.53 753.353 -715.967 -142.567 -85.123 -143.045 3.43614 -0.197865 -0.126303 3.43613 -0.189427 -0.138638 3.4366 -0.166289 -0.165684 3.43661 -0.190369 -0.137342 -18.7632 8.51287 1.08761 -19.0892 15.8154 4.4416 -0.0 0.0 -0.0 8.34484 0.941188 16.257 -17.147 -33.5877 39.5377 2.07579 -45.7935 0.876788 0.933466 0.0319533 -0.114936 -2.46945 14.0544 -9.6916 -0.0 0.0 -0.0 4.00242 6.85497 -7.32564 -29.6264 23.4209 -65.3466 0.401638 11.2528 -0.0395679 -25.5509 1.56134 -2.84217 -0.291638 -3.66412 0.388982 0.0 0.0 0.0 0.521724 0.588682 7.38004 -2.7004 0.101728 0.4019 27.3352 21.7318 -3.72826 -9.28238 0.0 0.0 -0.0 0.0 -0.0 33.0649 22.9269 0.911116 -26.9161 -0.149778 -4.09002 -10.9244 -20.5171 -1.66591 -17.0932 0.0 0.0 0.0 0.0 0.0 
2630.45 752.457 -715.358 -150.344 -85.1661 -150.441 3.57135 -0.21409 -0.170822 3.57134 -0.202786 -0.184099 3.572 -0.173124 -0.212233 3.57199 -0.204469 -0.182228 -18.7887 8.50034 0.943227 -19.1189 15.8682 4.30692 -0.0 0.0 -0.0 8.41483 0.775914 16.4016 -16.5224 -33.2652 39.1099 2.11962 -46.3913 0.908364 0.680354 0.0234745 -0.0837207 -2.60783 13.7528 -10.7271 -0.0 0.0 -0.0 3.91287 6.56206 -7.16228 -30.0356 23.5692 -65.5178 0.377786 10.6002 -0.0350469 -25.3224 1.54196 -2.82021 -0.214605 -4.10002 -0.303241 0.0 0.0 0.0 -0.502188 0.096787 7.20994 -3.02912 0.112814 0.451131 29.0192 21.6007 -3.92155 -9.30037 0.0 0.0 -0.0 0.0 -0.0 33.3755 24.3288 0.946143 -23.8125 -0.230927 -3.6207 -10.0357 -20.2926 -1.52747 -17.1448 0.0 0.0 0.0 0.0 0.0 
2646.89 751.392 -717.535 -162.545 -84.9576 -162.99 3.48691 -0.236192 -0.136341 3.48689 -0.227038 -0.151094 3.4875 -0.201748 -0.183504 3.48753 -0.228197 -0.149338 -18.8889 8.49002 0.880165 -19.2231 15.8849 4.25947 -0.0 0.0 -0.0 8.57582 0.680329 16.7275 -15.9872 -33.097 38.7885 2.15336 -46.8428 0.932885 0.50163 0.0174045 -0.0617014 -2.70235 13.5107 -11.4577 -0.0 0.0 -0.0 3.83794 6.14462 -7.03744 -30.5663 23.5985 -65.8605 0.357242 10.0358 -0.0313671 -25.1615 1.52836 -2.8047 -0.156036 -4.42198 -0.82431 0.0 0.0 0.0 -1.59962 -0.302818 7.09554 -3.65495 0.133136 0.545027 30.1387 21.5261 -4.04739 -9.32764 0.0 0.0 -0.0 0.0 -0.0 34.1996 25.4657 0.775944 -21.0076 -0.2823 -3.1934 -9.27549 -20.0783 -1.40926 -17.1548 0.0 0.0 0.0 0.0 0.0 
2659.68 743.636 -717.845 -165.836 -84.6316 -166.414 3.3469 -0.251413 -0.120306 3.34687 -0.243248 -0.13606 3.34746 -0.219615 -0.171614 3.34751 -0.243962 -0.134776 -19.2013 8.45989 0.881322 -19.5427 15.8364 4.29482 -0.0 0.0 -0.0 8.89308 0.676903 17.3668 -14.4599 -33.2541 38.2665 2.20963 -47.5792 0.974179 0.265103 0.00926506 -0.0325895 -2.81339 13.3124 -12.2754 -0.0 0.0 -0.0 3.75155 5.8314 -6.88297 -31.2093 23.5419 -66.3134 0.327407 9.21267 -0.026379 -25.0286 1.51718 -2.79187 -0.0868246 -4.65111 -1.37554 0.0 0.0 0.0 -2.44858 -0.648256 7.15992 -5.13187 0.177016 0.767435 30.9722 21.4676 -4.13951 -9.34477 0.0 0.0 -0.0 0.0 -0.0 34.9657 26.511 0.392734 -17.655 -0.316181 -2.68017 -8.10733 -19.6914 -1.2281 -16.9796 0.0 0.0 0.0 0.0 0.0 
